<svg xmlns="http://www.w3.org/2000/svg" width="21" height="18.341" viewBox="0 0 21 18.341">
    <path data-name="Shape 9" d="M62.492 583.757a6.174 6.174 0 0 0-1.383-1.963 6.444 6.444 0 0 0-2.042-1.315 6.666 6.666 0 0 0-5.873.444 6.318 6.318 0 0 0-.693.476 6.318 6.318 0 0 0-.693-.476 6.666 6.666 0 0 0-5.873-.444 6.433 6.433 0 0 0-2.042 1.315 6.115 6.115 0 0 0-1.383 1.963 5.947 5.947 0 0 0-.51 2.414 6.708 6.708 0 0 0 .493 2.448 10.841 10.841 0 0 0 1.172 2.157 20.97 20.97 0 0 0 3.255 3.593 36.16 36.16 0 0 0 4.584 3.49l.576.36a.8.8 0 0 0 .839 0l.576-.36a36.756 36.756 0 0 0 4.584-3.49 21 21 0 0 0 3.255-3.593 10.716 10.716 0 0 0 1.171-2.157 6.705 6.705 0 0 0 .495-2.448 5.905 5.905 0 0 0-.508-2.414z" transform="translate(-42 -579.998)" style="fill:#fff"/>
</svg>
