<svg xmlns="http://www.w3.org/2000/svg" width="15.6" height="14.04" viewBox="0 0 15.6 14.04">
    <path data-name="Shape 14" d="M1117.8 54.04a1.47 1.47 0 0 1-.762-.213c-6.123-3.753-7.037-7.615-7.037-9.583A4.272 4.272 0 0 1 1114.29 40a4.455 4.455 0 0 0 7.02 0 4.272 4.272 0 0 1 4.29 4.243c0 1.968-.914 5.831-7.033 9.581a1.479 1.479 0 0 1-.767.216zm-3.51-12.48a2.71 2.71 0 0 0-2.73 2.683c0 1.637.812 4.878 6.24 8.221 5.428-3.343 6.24-6.583 6.24-8.221a2.71 2.71 0 0 0-2.73-2.683 4.449 4.449 0 0 0-2.887 1.788.78.78 0 0 1-.623.31.782.782 0 0 1-.623-.312 4.444 4.444 0 0 0-2.887-1.786z" transform="translate(-1110 -40)" style="fill:#b3b3bc"/>
</svg>
