<svg xmlns="http://www.w3.org/2000/svg" width="143.309" height="40" viewBox="0 0 143.309 40">
    <g data-name="Group 17">
        <path data-name="Shape 1" d="M79.16 37a18.161 18.161 0 1 0 18.16 18.161A18.16 18.16 0 0 0 79.16 37zm7.567 21.517a2.892 2.892 0 0 1-.69 1.866 3.3 3.3 0 0 1-1.784 1.078 3.515 3.515 0 0 1-2.122-.168 3.187 3.187 0 0 1-1.562-1.342A2.835 2.835 0 0 1 80.23 58a2.975 2.975 0 0 1 1.027-1.728 3.407 3.407 0 0 1 1.959-.776 3.475 3.475 0 0 1 2.059.5v-5.021l-10.164 2.352v7.878a2.886 2.886 0 0 1-.69 1.866 3.305 3.305 0 0 1-1.784 1.078 3.514 3.514 0 0 1-2.122-.168 3.187 3.187 0 0 1-1.562-1.342 2.835 2.835 0 0 1-.339-1.947 2.972 2.972 0 0 1 1.027-1.728 3.406 3.406 0 0 1 1.958-.776 3.475 3.475 0 0 1 2.06.5v-9.246a.641.641 0 0 1 .153-.413.73.73 0 0 1 .4-.238L85.825 46.1a.771.771 0 0 1 .327-.007.744.744 0 0 1 .3.129.687.687 0 0 1 .206.235.638.638 0 0 1 .074.295z" transform="translate(-61 -35.851)" style="fill:#810567"/>
        <text transform="translate(41.309 32)" style="font-size:33px;font-family:Montserrat-Bold,Montserrat;font-weight:700;fill:#810567"><tspan x="0" y="0">Tones</tspan></text>
    </g>
</svg>
