<svg xmlns="http://www.w3.org/2000/svg" width="991" height="173.477" viewBox="0 0 991 173.477">
    <defs>
        <clipPath id="a7xrahsroa">
            <rect data-name="Rounded Rectangle 1" width="991" height="173.477" rx="14" transform="translate(450.277 1596.388)" style="fill:none"/>
        </clipPath>
    </defs>
    <g data-name="Group 15">
        <g data-name="Group 14">
            <g data-name="Group 10">
                <g data-name="Group 3">
                    <g data-name="Group 2">
                        <g data-name="Group 1" style="clip-path:url(#a7xrahsroa)" transform="translate(-450.278 -1596.388)">
                            <rect data-name="Rounded Rectangle 1" width="991" height="173.477" rx="14" transform="translate(450.277 1596.388)" style="fill:#810567"/>
                            <circle data-name="Ellipse 1" cx="138.427" cy="138.427" r="138.427" transform="translate(468.239 1556.334)" style="fill:#5a0548"/>
                            <circle data-name="Ellipse 2" cx="138.427" cy="138.427" r="138.427" transform="translate(681.039 1556.334)" style="fill:#bf30b2;mix-blend-mode:multiply;isolation:isolate"/>
                        </g>
                    </g>
                </g>
                <text data-name="Your Favorites" transform="translate(212.656 132)" style="fill:#fff;font-size:84px;font-family:Montserrat-Bold,Montserrat;font-weight:700;opacity:.286"><tspan x="0" y="0">Your Favorites</tspan></text>
            </g>
        </g>
        <g data-name="Group 13">
            <path data-name="Path 5" d="M2635.734 1690.435a6.339 6.339 0 0 1-9.213 5.526 29.149 29.149 0 0 1-2.824-1.852q-14.184-9.76-28.348-19.545a1.6 1.6 0 0 0-2.183-.025c-9.946 6.9-19.931 13.737-29.887 20.623-2.464 1.7-4.972 2.12-7.587.488-2.589-1.617-3.431-4.4-2.422-7.709q3.738-12.262 7.489-24.519c1.012-3.309 1.981-6.632 3.076-9.914a1.609 1.609 0 0 0-.743-2.13q-14.558-10.855-29.067-21.775c-2.232-1.672-3.366-3.808-2.779-6.615.661-3.159 3.032-4.968 6.554-5.043 7.014-.148 14.027-.25 21.04-.388 5.137-.1 10.271-.285 15.405-.318a1.8 1.8 0 0 0 1.986-1.5c3.9-11.224 7.865-22.424 11.771-33.644.8-2.31 2.09-4.092 4.531-4.766 3.366-.929 6.466.77 7.712 4.245 1.689 4.708 3.332 9.435 4.99 14.153 2.378 6.764 4.772 13.524 7.1 20.3a1.511 1.511 0 0 0 1.691 1.189q17.972.314 35.948.714a11.516 11.516 0 0 1 2.967.354 5.867 5.867 0 0 1 4.255 4.643 5.743 5.743 0 0 1-1.87 5.895c-1.568 1.372-3.283 2.57-4.955 3.824q-12.517 9.4-25.063 18.76a1.625 1.625 0 0 0-.652 2.156q5.294 17.148 10.509 34.319c.253.836.381 1.705.569 2.554zm-77.585-.31c-.084.973.621 1.48 1.452 1.095a6.079 6.079 0 0 0 .835-.554l31.557-21.727c1.93-1.33 2.559-1.325 4.51.018l27.439 18.885c1.511 1.041 3 2.123 4.549 3.1a1.6 1.6 0 0 0 1.418.146c.285-.218.218-.923.257-1.419a1.753 1.753 0 0 0-.158-.6l-11.1-36.233c-.675-2.207-.455-2.871 1.413-4.272q15.225-11.423 30.455-22.846a4.37 4.37 0 0 0 .877-.7c.2-.271.436-.72.339-.968a1.313 1.313 0 0 0-.868-.723 20.555 20.555 0 0 0-2.624-.133q-18.473-.38-36.948-.754c-2.121-.043-2.719-.475-3.406-2.432q-4.69-13.334-9.37-26.669c-1.121-3.187-2.2-6.386-3.376-9.551-.2-.535-.787-.927-1.2-1.385-.4.475-.793.947-1.183 1.426-.049.061-.044.159-.07.238q-6.3 17.936-12.605 35.871c-.719 2.049-1.271 2.454-3.485 2.5q-19.351.407-38.7.832a5.35 5.35 0 0 0-1.707.685 5.278 5.278 0 0 0 .988 1.53q15.341 11.58 30.733 23.1c1.807 1.356 2.046 2.069 1.4 4.17q-5.183 16.923-10.37 33.841l-1.052 3.529z" transform="translate(-2468.719 -1548.255)" style="fill:#db7fd2"/>
        </g>
    </g>
</svg>
