<svg xmlns="http://www.w3.org/2000/svg" width="991" height="173.477" viewBox="0 0 991 173.477">
    <defs>
        <clipPath id="d0xg3zlcga">
            <rect data-name="Rounded Rectangle 1" width="991" height="173.477" rx="14" transform="translate(450.277 1596.388)" style="fill:none"/>
        </clipPath>
    </defs>
    <g data-name="Group 14">
        <g data-name="Group 10">
            <g data-name="Group 3">
                <g data-name="Group 2">
                    <g data-name="Group 1" style="clip-path:url(#d0xg3zlcga)" transform="translate(-450.278 -1596.388)">
                        <rect data-name="Rounded Rectangle 1" width="991" height="173.477" rx="14" transform="translate(450.277 1596.388)" style="fill:#810567"/>
                        <circle data-name="Ellipse 1" cx="138.427" cy="138.427" r="138.427" transform="translate(468.239 1556.334)" style="fill:#5a0548"/>
                        <circle data-name="Ellipse 2" cx="138.427" cy="138.427" r="138.427" transform="translate(681.039 1556.334)" style="fill:#bf30b2;mix-blend-mode:multiply;isolation:isolate"/>
                    </g>
                </g>
            </g>
            <text data-name="Your Downloads" transform="translate(212.656 132)" style="fill:#fff;font-size:84px;font-family:Montserrat-Bold,Montserrat;font-weight:700;opacity:.286"><tspan x="0" y="0">Your Downloads</tspan></text>
        </g>
        <path data-name="Shape 11" d="M42 688.285a15.537 15.537 0 0 1 4.72-11.122 16.34 16.34 0 0 1 11.4-4.606h21.119a16.5 16.5 0 0 1 7.607 1.86 15.962 15.962 0 0 1 5.806 5.145l4.364 6.39a5.309 5.309 0 0 0 1.935 1.71 5.423 5.423 0 0 0 2.538.624h31.865a16.329 16.329 0 0 1 11.4 4.607 15.524 15.524 0 0 1 4.722 11.121V751.2a15.525 15.525 0 0 1-4.722 11.122 16.329 16.329 0 0 1-11.4 4.607H58.121a16.341 16.341 0 0 1-11.4-4.607A15.533 15.533 0 0 1 42 751.2zm59.111 26.215a5.188 5.188 0 0 0-1.573-3.709 5.476 5.476 0 0 0-7.6 0 5.188 5.188 0 0 0-1.573 3.709v18.8l-6.95-6.782a5.473 5.473 0 0 0-7.531.066 5.159 5.159 0 0 0-.067 7.353l16.121 15.727a5.473 5.473 0 0 0 7.6 0l16.121-15.727a5.155 5.155 0 0 0-.064-7.353 5.476 5.476 0 0 0-7.534-.066l-6.947 6.782z" transform="translate(35.049 -643.667)" style="fill:#db7fd2"/>
    </g>
</svg>
