<svg xmlns="http://www.w3.org/2000/svg" width="50" height="50.001" viewBox="0 0 50 50.001">
    <g data-name="Group 49">
        <path data-name="Shape 965" d="M412.417 754h-20.833A14.584 14.584 0 0 0 377 768.583v20.834A14.584 14.584 0 0 0 391.584 804h20.833A14.582 14.582 0 0 0 427 789.417v-20.834A14.582 14.582 0 0 0 412.417 754" transform="translate(-377 -754)" style="fill:#e7e7e7"/>
        <path data-name="Shape 966" d="M0 18.221V2.615A2.567 2.567 0 0 1 3.791.32l14.1 7.8a2.633 2.633 0 0 1 0 4.586l-14.1 7.8a2.513 2.513 0 0 1-1.223.321A2.591 2.591 0 0 1 0 18.221z" transform="translate(16.667 14.583)" style="fill:#8d0b78"/>
    </g>
</svg>
